HIERARCHY
ROOT locator2
{
  OFFSET 53.6172 30.1899 0.816905
  CHANNELS 6 Xposition Yposition Zposition Zrotation Xrotation Yrotation
  JOINT koshi
  {
    OFFSET 0 0 0
    CHANNELS 6 Xposition Yposition Zposition Zrotation Xrotation Yrotation
    JOINT sippo01
    {
      OFFSET 0 42.8363 -0.548134
      CHANNELS 6 Xposition Yposition Zposition Zrotation Xrotation Yrotation
      JOINT sippo02
      {
        OFFSET 0 44.0461 -3.28882
        CHANNELS 6 Xposition Yposition Zposition Zrotation Xrotation Yrotation
        JOINT sippo03
        {
          OFFSET 0 34.1929 -2.46662
          CHANNELS 6 Xposition Yposition Zposition Zrotation Xrotation Yrotation
          JOINT sippo04
          {
            OFFSET 0 30.0959 -1.75404
            CHANNELS 6 Xposition Yposition Zposition Zrotation Xrotation Yrotation
            JOINT sippo05
            {
              OFFSET 0 28.3637 -1.75404
              CHANNELS 6 Xposition Yposition Zposition Zrotation Xrotation Yrotation
              JOINT sippo06
              {
                OFFSET 0 31.6071 -3.2043
                CHANNELS 6 Xposition Yposition Zposition Zrotation Xrotation Yrotation
                End Site
                {
                  OFFSET 0 0 0
                }
              }
            }
          }
        }
      }
    }
    JOINT R_momo
    {
      OFFSET -27.891 13.5892 3.92723
      CHANNELS 6 Xposition Yposition Zposition Zrotation Xrotation Yrotation
      JOINT R_hiza
      {
        OFFSET 0 28.01 1.8232
        CHANNELS 6 Xposition Yposition Zposition Zrotation Xrotation Yrotation
        JOINT R_ashi
        {
          OFFSET 0 24.3992 -2.49174
          CHANNELS 6 Xposition Yposition Zposition Zrotation Xrotation Yrotation
          End Site
          {
            OFFSET 0 0 0
          }
        }
      }
    }
    JOINT L_momo
    {
      OFFSET 27.891 13.5892 3.92714
      CHANNELS 6 Xposition Yposition Zposition Zrotation Xrotation Yrotation
      JOINT L_hiza
      {
        OFFSET 0 28.0098 1.82319
        CHANNELS 6 Xposition Yposition Zposition Zrotation Xrotation Yrotation
        JOINT L_ashi
        {
          OFFSET 0 24.3992 -2.49171
          CHANNELS 6 Xposition Yposition Zposition Zrotation Xrotation Yrotation
          End Site
          {
            OFFSET 0 0 0
          }
        }
      }
    }
  }
  JOINT hara
  {
    OFFSET 0 2.15392 0
    CHANNELS 6 Xposition Yposition Zposition Zrotation Xrotation Yrotation
    JOINT mune
    {
      OFFSET 0 62.0609 0.472494
      CHANNELS 6 Xposition Yposition Zposition Zrotation Xrotation Yrotation
      JOINT R_kata
      {
        OFFSET 22.6695 9.65301 -5.3622
        CHANNELS 6 Xposition Yposition Zposition Zrotation Xrotation Yrotation
        JOINT R_hiji
        {
          OFFSET 0 25.813 1.69098
          CHANNELS 6 Xposition Yposition Zposition Zrotation Xrotation Yrotation
          JOINT R_te
          {
            OFFSET 0 28.5636 -0.966307
            CHANNELS 6 Xposition Yposition Zposition Zrotation Xrotation Yrotation
            End Site
            {
              OFFSET 0 0 0
            }
          }
        }
      }
      JOINT L_kata
      {
        OFFSET -22.6695 9.65298 -5.3622
        CHANNELS 6 Xposition Yposition Zposition Zrotation Xrotation Yrotation
        JOINT L_hiji
        {
          OFFSET 0 25.813 1.69102
          CHANNELS 6 Xposition Yposition Zposition Zrotation Xrotation Yrotation
          JOINT L_te
          {
            OFFSET 0 28.5636 -0.966295
            CHANNELS 6 Xposition Yposition Zposition Zrotation Xrotation Yrotation
            End Site
            {
              OFFSET 0 0 0
            }
          }
        }
      }
      JOINT kubi
      {
        OFFSET 0 23.1438 -0.944988
        CHANNELS 6 Xposition Yposition Zposition Zrotation Xrotation Yrotation
        JOINT atama
        {
          OFFSET 0 20.8625 4.12737
          CHANNELS 6 Xposition Yposition Zposition Zrotation Xrotation Yrotation
          JOINT ago
          {
            OFFSET 0 7.552 -7.58201
            CHANNELS 6 Xposition Yposition Zposition Zrotation Xrotation Yrotation
            End Site
            {
              OFFSET 0 0 0
            }
          }
        }
      }
    }
  }
}
MOTION
Frames:	8
Frame Time:	0.0333333
0.141145 21.5955 -0.0170437 -90 -3.50835e-015 -90 0 0 0 -174.648 1.25819 0.502052 1.19209e-007 42.8363 -0.548136 2.549 -6.14233 3.474 6.70552e-007 44.0461 -3.28882 -12.4013 4.13361 -3.66989 1.90735e-006 34.1929 -2.46662 -18.3945 0.626434 -1.10809 -3.8147e-006 30.0959 -1.75404 -14.7356 2.14389 -0.623077 1.52588e-005 28.3637 -1.75404 9.08711 -2.10874 5.74464 1.42109e-014 31.6072 -3.2043 5.62588 -1.98374 -5.37858 -27.891 13.5892 3.92723 125.538 -23.0461 -66.7953 -3.8147e-006 28.01 1.8232 151.741 -88.3047 143.826 -3.8147e-006 24.3992 -2.49173 -138.639 56.224 -158.786 27.891 13.5892 3.92714 -108.012 -27.7915 82.281 0 28.0098 1.82319 0.0542021 -77.3717 -0.0618521 -3.8147e-006 24.3992 -2.49173 129.11 61.1181 156.802 6.09085e-007 2.15392 3.55271e-015 -2.00825 -0.021691 -0.145095 2.16067e-007 62.0609 0.472498 -1.00888e-005 -9.87863e-011 2.3794e-009 22.6695 9.65299 -5.3622 -158.114 1.99655 57.0981 7.10543e-015 25.813 1.69098 179.872 -66.7526 178.384 1.14441e-005 28.5636 -0.966314 29.4815 13.2406 -98.5141 -22.6695 9.65298 -5.3622 138.333 -4.32615 -63.5221 0 25.813 1.69101 -179.742 -74.9868 -177.778 -3.8147e-006 28.5636 -0.966302 -30.0294 31.039 105.506 -5.58794e-008 23.1438 -0.944992 12.7283 -0.477321 -29.0871 0 20.8625 4.12737 7.97974 10.9318 -28.1559 -7.62939e-006 7.55201 -7.582 -6.91842e-006 -26.2656 -1.5764e-006 
0.143374 21.6189 -0.0195304 -90 -3.50835e-015 -90 0 0 0 -174.647 1.22698 0.478491 1.19209e-007 42.8363 -0.548136 2.58984 -6.05284 3.89149 6.64225e-007 44.0461 -3.28882 -11.828 4.53665 -3.15029 1.89858e-006 34.1929 -2.46662 -17.9672 1.14638 -1.3486 -3.86171e-006 30.0959 -1.75404 -14.1932 2.6126 -0.956413 1.5102e-005 28.3637 -1.75404 9.40927 -1.57228 5.72072 -3.79411e-007 31.6072 -3.20429 5.63117 -2.50546 -5.89672 -27.891 13.5892 3.92723 125.526 -23.111 -66.9931 -3.81015e-006 28.01 1.8232 152.267 -88.2841 144.426 -3.82016e-006 24.3992 -2.49173 -138.548 56.2049 -158.741 27.891 13.5892 3.92714 -107.997 -27.9416 82.4009 -5.67093e-009 28.0098 1.82319 0.122974 -77.3437 -0.188009 -3.81319e-006 24.3992 -2.49173 129.078 61.1549 156.76 6.09085e-007 2.15392 0 -2.00825 -0.0225535 -0.145098 2.16067e-007 62.0609 0.472498 -7.08674e-008 -9.64719e-011 2.25549e-009 22.6695 9.65299 -5.3622 -158.034 2.10212 57.0523 -1.59499e-008 25.813 1.69098 179.872 -66.728 178.416 1.14552e-005 28.5636 -0.966314 29.5993 13.2828 -98.4457 -22.6695 9.65298 -5.3622 138.242 -4.1332 -63.3928 2.89698e-008 25.813 1.69101 -179.747 -74.9585 -177.846 -3.83851e-006 28.5636 -0.966302 -30.1791 31.1138 105.375 -5.58798e-008 23.1438 -0.944992 12.728 -0.477265 -29.0875 2.02434e-011 20.8625 4.12737 7.97947 10.9319 -28.1565 -7.62936e-006 7.55201 -7.582 -6.46897e-006 -26.1675 5.93656e-006 
0.145559 21.6418 -0.0219688 -90 -3.50835e-015 -90 0 0 0 -174.647 1.22698 0.478491 1.19209e-007 42.8363 -0.548136 2.62987 -5.96543 4.29902 6.58167e-007 44.0461 -3.28882 -11.2646 4.93396 -2.64729 1.89108e-006 34.1929 -2.46662 -17.55 1.65766 -1.59178 -3.90671e-006 30.0959 -1.75404 -13.6762 4.09275 -1.93274 1.49597e-005 28.3637 -1.75404 9.72474 -1.04911 5.69156 -7.31752e-007 31.6072 -3.20429 5.63657 -3.01788 -7.62866 -27.891 13.5892 3.92723 125.505 -23.1471 -67.2489 -3.80611e-006 28.01 1.8232 152.947 -88.244 145.139 -3.82867e-006 24.3992 -2.49173 -138.458 56.1684 -158.694 27.891 13.5892 3.92714 -107.98 -28.1741 82.5586 -1.42047e-008 28.0098 1.82319 0.215066 -77.2736 -0.296153 -3.81142e-006 24.3992 -2.49173 128.995 61.2316 156.764 6.09085e-007 2.15392 7.10543e-015 -2.00847 -0.109747 -0.145422 2.16067e-007 62.0609 0.472498 -7.08666e-008 -9.64724e-011 2.25549e-009 22.6695 9.65299 -5.3622 -157.923 2.24247 56.9907 -3.72251e-008 25.813 1.69098 179.872 -66.694 178.46 1.147e-005 28.5636 -0.966314 29.7183 13.3357 -98.3348 -22.6695 9.65298 -5.3622 138.139 -3.90811 -63.264 6.19086e-008 25.813 1.69101 -179.751 -74.9307 -177.912 -3.8645e-006 28.5636 -0.966302 -30.3167 31.1926 105.198 -5.58798e-008 23.1438 -0.944992 12.6938 -0.472785 -29.1311 1.98338e-009 20.8625 4.12737 7.9511 10.9445 -28.2116 -7.62632e-006 7.55201 -7.582 -6.48177e-006 -26.0567 5.9503e-006 
0.147766 21.665 -0.0244313 -90 -3.50835e-015 -90 0 0 0 -174.646 1.17289 0.437697 1.19209e-007 42.8363 -0.548136 2.67048 -5.87643 5.05169 6.46727e-007 44.0461 -3.28882 -10.6964 5.33563 -2.14805 1.88224e-006 34.1929 -2.46662 -16.0557 2.63375 -1.75897 -4.06328e-006 30.0959 -1.75404 -13.1622 5.59395 -2.94594 1.47583e-005 28.3637 -1.75404 10.0461 -0.518272 5.65607 -1.1969e-006 31.6072 -3.20429 5.64604 -4.05297 -9.3264 -27.891 13.5892 3.92723 125.463 -23.1723 -67.5526 -3.802e-006 28.01 1.8232 154.069 -88.1736 146.3 -3.83943e-006 24.3992 -2.49173 -138.376 56.1171 -158.626 27.891 13.5892 3.92714 -107.96 -28.4951 82.745 -2.56382e-008 28.0098 1.82319 0.329893 -77.2028 -0.429285 -3.80929e-006 24.3992 -2.49173 128.89 61.3307 156.799 6.09085e-007 2.15392 3.55271e-015 -2.0086 -0.16546 -0.145626 2.16067e-007 62.0609 0.472498 -7.08666e-008 -9.64724e-011 2.25549e-009 22.6695 9.65299 -5.3622 -157.829 2.38093 56.93 -5.78418e-008 25.813 1.69098 179.872 -66.694 178.46 1.14841e-005 28.5636 -0.966314 29.8372 13.3987 -98.2316 -22.6695 9.65298 -5.3622 138.047 -3.64885 -63.1033 9.99389e-008 25.813 1.69101 -179.755 -74.9026 -177.978 -3.89511e-006 28.5636 -0.966302 -30.4583 31.2852 105.034 -5.58799e-008 23.1438 -0.944992 12.6696 -0.468072 -29.1623 3.47313e-009 20.8625 4.12737 7.9511 10.9445 -28.2116 -7.62546e-006 7.55201 -7.582 -6.49298e-006 -25.9598 5.96233e-006 
0.149995 21.6884 -0.026918 -90 -3.50835e-015 -90 0 0 0 -174.645 1.14124 0.413794 1.19209e-007 42.8363 -0.548136 2.71132 -5.78705 5.80859 6.3546e-007 44.0461 -3.28882 -9.43585 5.75355 -1.55965 1.87387e-006 34.1929 -2.46662 -14.5498 3.63155 -1.98026 -4.22318e-006 30.0959 -1.75404 -11.9134 7.13556 -4.08776 1.43488e-005 28.3637 -1.75404 10.371 0.4796 5.52915 -1.94407e-006 31.6072 -3.20429 5.65781 -5.09803 -11.0397 -27.891 13.5892 3.92723 125.387 -23.2059 -67.9443 -3.7967e-006 28.01 1.8232 154.448 -88.1301 146.714 -3.85157e-006 24.3992 -2.49173 -138.29 56.0446 -158.551 27.891 13.5892 3.92714 -107.925 -28.8292 82.9598 -3.74637e-008 28.0098 1.82319 0.443134 -77.1031 -0.566889 -3.80687e-006 24.3992 -2.49173 128.768 61.4487 156.835 6.09085e-007 2.15392 7.10543e-015 -2.00874 -0.221161 -0.14583 2.16067e-007 62.0609 0.472498 -7.08666e-008 -9.64712e-011 2.25549e-009 22.6695 9.65299 -5.3622 -157.699 2.55922 56.8507 -8.44998e-008 25.813 1.69098 179.873 -66.6342 178.537 1.15026e-005 28.5636 -0.966314 29.9862 13.4733 -98.1096 -22.6695 9.65298 -5.3622 137.942 -3.39023 -63.002 1.35914e-007 25.813 1.69101 -179.76 -74.87 -178.056 -3.91973e-006 28.5636 -0.966302 -30.6017 31.3784 104.831 -5.58799e-008 23.1438 -0.944992 12.6691 -0.467737 -29.1628 3.51747e-009 20.8625 4.12737 7.90808 10.9647 -28.2675 -7.62311e-006 7.55201 -7.582 -6.50524e-006 -25.854 5.97548e-006 
0.15218 21.7113 -0.0293564 -90 -3.50835e-015 -90 0 0 0 -174.644 1.0976 0.380725 1.19209e-007 42.8363 -0.548136 2.75143 -5.69918 6.55276 6.24622e-007 44.0461 -3.28882 -8.19741 6.09229 -1.01046 1.86729e-006 34.1929 -2.46662 -13.0744 4.62036 -2.35837 -4.37919e-006 30.0959 -1.75404 -10.6886 8.65733 -5.27213 1.39364e-005 28.3637 -1.75404 10.6929 1.45858 5.39349 -2.68329e-006 31.6072 -3.20429 5.67059 -6.12304 -12.72 -27.891 13.5892 3.92723 125.335 -23.2483 -68.2717 -3.79174e-006 28.01 1.8232 155.233 -88.0654 147.534 -3.86319e-006 24.3992 -2.49173 -138.213 55.9948 -158.484 27.891 13.5892 3.92714 -107.875 -29.1604 83.181 -4.90299e-008 28.0098 1.82319 0.576243 -77.0042 -0.730466 -3.80513e-006 24.3992 -2.49173 128.643 61.5682 156.873 6.09085e-007 2.15392 1.06581e-014 -2.00874 -0.221163 -0.14583 2.16067e-007 62.0609 0.472498 -7.08666e-008 -9.64715e-011 2.25549e-009 22.6695 9.65299 -5.3622 -157.587 2.69888 56.7874 -1.0553e-007 25.813 1.69098 179.873 -66.6102 178.568 1.15174e-005 28.5636 -0.966314 30.1067 13.5467 -97.9646 -22.6695 9.65298 -5.3622 137.839 -3.13848 -62.8735 1.71812e-007 25.813 1.69101 -179.765 -74.8379 -178.132 -3.94632e-006 28.5636 -0.966302 -30.7494 31.4849 104.604 -5.58798e-008 23.1438 -0.944992 12.6176 -0.433786 -29.2115 7.98491e-009 20.8625 4.12737 7.87222 10.9822 -28.299 -7.61877e-006 7.55201 -7.582 -6.51887e-006 -25.7365 5.9901e-006 
0.154388 21.7345 -0.0318189 -90 -3.50835e-015 -90 0 0 0 -174.644 1.0976 0.380724 1.19209e-007 42.8363 -0.548136 2.79183 -5.61081 7.30112 6.13967e-007 44.0461 -3.28882 -6.94558 6.43346 -0.470372 1.86256e-006 34.1929 -2.46662 -11.5843 5.62763 -2.79191 -4.53574e-006 30.0959 -1.75404 -9.44977 10.2024 -6.53466 1.35149e-005 28.3637 -1.75404 11.0208 2.44249 5.24557 -3.42586e-006 31.6072 -3.20429 5.68572 -7.15808 -14.4161 -27.891 13.5892 3.92723 125.28 -23.2923 -68.6127 -3.78661e-006 28.01 1.8232 155.84 -88.0194 148.213 -3.87358e-006 24.3992 -2.49173 -138.12 55.9558 -158.435 27.891 13.5892 3.92714 -107.844 -29.4806 83.3685 -5.98682e-008 28.0098 1.82319 0.68445 -76.9201 -0.916066 -3.8041e-006 24.3992 -2.49173 128.551 61.6717 156.899 6.09085e-007 2.15392 7.10543e-015 -2.00897 -0.317635 -0.146918 2.16067e-007 62.0609 0.472498 -7.08666e-008 -9.64731e-011 2.25549e-009 22.6695 9.65299 -5.3622 -157.475 2.87296 56.751 -1.30494e-007 25.813 1.69098 179.873 -66.5859 178.599 1.15327e-005 28.5636 -0.966314 30.2517 13.6185 -97.8217 -22.6695 9.65298 -5.3622 137.722 -2.85302 -62.7736 2.1091e-007 25.813 1.69101 -179.768 -74.8149 -178.186 -3.97339e-006 28.5636 -0.966302 -30.898 31.5914 104.376 -5.58798e-008 23.1438 -0.944992 12.5853 -0.396111 -29.2376 1.1773e-008 20.8625 4.12737 7.83356 11.0008 -28.3448 -7.61432e-006 7.55201 -7.582 -6.53012e-006 -25.6396 6.00216e-006 
0.156616 21.7579 -0.0343056 -90 -3.50835e-015 -90 0 0 0 -174.643 1.03475 0.333484 1.19209e-007 42.8363 -0.548136 2.83267 -5.5213 8.05885 6.03431e-007 44.0461 -3.28882 -5.67904 6.77684 0.0601239 1.85985e-006 34.1929 -2.46662 -10.0779 6.65158 -3.28276 -4.69184e-006 30.0959 -1.75404 -8.194 11.7686 -7.87807 1.30898e-005 28.3637 -1.75404 11.3564 3.4354 5.08431 -4.16254e-006 31.6072 -3.2043 5.7033 -8.20317 -16.1279 -27.891 13.5892 3.92723 125.257 -23.3759 -68.8782 -3.78075e-006 28.01 1.8232 156.242 -87.998 148.725 -3.88056e-006 24.3992 -2.49173 -138.006 55.9274 -158.37 27.891 13.5892 3.92714 -107.805 -29.7562 83.5638 -6.92321e-008 28.0098 1.82319 0.794039 -76.8343 -1.05821 -3.80267e-006 24.3992 -2.49173 128.446 61.7662 156.913 6.09085e-007 2.15392 3.55271e-015 -2.00898 -0.318498 -0.146921 2.16067e-007 62.0609 0.472498 -7.08666e-008 -9.64712e-011 2.25549e-009 22.6695 9.65299 -5.3622 -157.377 3.04922 56.7144 -1.55381e-007 25.813 1.69098 179.873 -66.5512 178.644 1.15478e-005 28.5636 -0.966314 30.3788 13.7053 -97.6785 -22.6695 9.65298 -5.3622 137.602 -2.5652 -62.6714 2.50264e-007 25.813 1.69101 -179.774 -74.7785 -178.273 -3.99929e-006 28.5636 -0.966302 -31.0391 31.717 104.151 -5.58799e-008 23.1438 -0.944992 12.5507 -0.337879 -29.2807 1.71722e-008 20.8625 4.12737 7.81118 11.0115 -28.3721 -7.6095e-006 7.55201 -7.582 -1.94447e-006 -25.5338 7.6636e-007 
